<?xml version="1.0" encoding="UTF-8"?> <svg xmlns="http://www.w3.org/2000/svg" xmlns:xlink="http://www.w3.org/1999/xlink" version="1.1" id="Layer_1" x="0px" y="0px" viewBox="0 0 141.73 95.83" style="enable-background:new 0 0 141.73 95.83;" xml:space="preserve"> <style type="text/css"> .st0{fill:#E82C2A;} .st1{fill:#231F20;} </style> <g> <g> <path class="st0" d="M11.9,78.46c-0.69-0.63-1.72-0.98-2.62-0.98c-2.2,0-3.54,1.51-3.54,3.54c0,1.61,0.98,3.28,3.54,3.28 c0.82,0,1.5-0.17,2.32-0.78v-1.74H8.98v-1.65h4.41v4.13c-1.01,1.12-2.28,1.76-4.1,1.76c-3.87,0-5.44-2.42-5.44-5 c0-2.69,1.81-5.23,5.44-5.23c1.4,0,2.76,0.49,3.82,1.5L11.9,78.46z"></path> <path class="st0" d="M20.45,76v8.09h5.29v1.71h-7.23V76H20.45z"></path> <path class="st0" d="M39.95,80.95c-0.04,2.53-1.66,5.07-5.28,5.07s-5.29-2.48-5.29-5.05c0-3.09,2.34-5.16,5.34-5.16 C38.24,75.84,40,78.4,39.95,80.95z M34.68,84.32c2.43,0,3.32-1.72,3.37-3.34s-0.96-3.46-3.32-3.5c-2.18,0-3.5,1.55-3.42,3.51 C31.34,82.6,32.27,84.32,34.68,84.32z"></path> <path class="st0" d="M49.7,76c2.03,0,3.54,0.87,3.54,2.84c0,0.77-0.38,1.48-1.34,1.89c1.21,0.34,1.65,1.6,1.65,2.18 c0,2.2-1.72,2.88-3.85,2.88h-4.88V76H49.7z M46.73,79.93h2.97c1.22,0,1.62-0.49,1.62-1.05c0-0.45-0.38-1.2-1.62-1.2h-2.97V79.93z M46.73,84.07h2.97c0.78,0,1.93-0.25,1.93-1.18c0-0.9-1.15-1.34-1.93-1.34h-2.97V84.07z"></path> <path class="st0" d="M65.46,83.94h-5.38l-0.88,1.85h-2.1l4.62-9.8h2.12l4.62,9.8h-2.12L65.46,83.94z M62.77,78.05l-1.91,4.17h3.82 L62.77,78.05z"></path> <path class="st0" d="M74.65,76v8.09h5.29v1.71h-7.23V76H74.65z"></path> </g> <path class="st1" d="M89.91,61.29l-6.11-9.39c5.37-2.17,8.66-6.55,8.66-11.6c0-4.59-2.05-8.42-5.92-11.09 c-3.15-2.18-7.41-3.42-11.67-3.42H48.16v3.48c0.56,0.54,1.29,1.27,1.88,2.97c0.59,1.71,1.04,4.38,1.04,8.81v13.68 c0,8.86-1.81,10.71-2.93,11.78V70h17.47V54.43h3.96L79.95,70h15.44v-3.48C94.21,65.79,92.42,64.78,89.91,61.29z M71.8,44.74h-6.17 V35.5h6.13c1.33,0,5.66,0.34,5.66,4.73C77.41,41.28,77.01,44.74,71.8,44.74z M14.18,38.7c0-0.07,0.01-0.19,0.03-0.36 c0.04-0.4,0.12-0.85,0.21-1.32c0.54-2.81,2.13-8.58,6.08-13.97C27.01,14.16,34.3,9.05,43.7,5.07c9.4-3.99,19.32-5.45,30.98-4.98 c11.65,0.47,20.98,4.71,20.98,4.71l-0.1,0.23c-6.79-2.49-17.03-3.01-25.1-2.59c-8.07,0.42-17.68,1.89-26.71,7.21S29,24.98,29,24.98 c0.15,0.02,0.29,0.04,0.43,0.06c4.69,0.78,8.98,2.36,12.65,4.39v12.28h-3.46c0,0-4.05-5.4-13.36-5.71 c-2.98-0.11-6.5,0.22-8.78,0.86c-1.6,0.48-2.09,1.17-2.24,1.56c-0.03,0.07-0.05,0.14-0.05,0.22c-0.01,0.05-0.01,0.1-0.01,0.16v0.01 c0,0.09,0.01,0.2,0.03,0.3c0.07,0.26,0.21,0.52,0.43,0.76c0.01,0.01,0.02,0.01,0.02,0.02c0.9,0.99,4.4,1.76,4.4,1.76 c2.88,0.63,6.18,1.01,9.39,1.66c3.72,0.7,7.66,1.67,10.01,3.09c4.72,2.85,5.78,6.23,5.78,10.11c0,3.89-3.08,10.9-14.33,13.59 C18.66,72.77,8.1,70.49,0.23,66.33V54.06h3.62c0,0,4.24,5.4,13.97,5.71c3.21,0.11,7-0.24,9.38-0.92c2.39-0.69,2.64-1.98,1.7-2.96 c-0.94-0.99-4.6-1.76-4.6-1.76c-2.72-0.67-14.28-1.9-18.78-4.74C1.02,46.54,0,43.16,0,39.28c0-3.89,2.94-10.9,13.71-13.59 c0.16-0.04,0.32-0.08,0.48-0.11L14.18,38.7z M122.35,45.4h19.39v19.29c-2.08,2.6-7.07,4.81-12.45,5.89V56.13 c0-1.88-2.21-2.56-2.71-2.72c-0.5-0.15-4.23-1.25-4.23-1.25V45.4z M124.34,59.75c-1.64,0.16-3.63,0.15-5.84-0.33 c-6.32-1.37-9.44-5.65-9.44-11.57c0-5.93,4.79-11.85,14.54-11.85s14.42,5.96,14.42,5.96l3.72,0.05l-0.02-12.64 c0,0-8.43-5.65-20.34-4.74c-11.91,0.91-16.94,5.56-20.54,9.38c-3.59,3.82-8.69,14.58-1.41,26.37c3.38,5.46,8.56,8.3,13.74,9.68h0v0 c-0.05,0.09-6.26,10.82-15.25,16.11c-9.03,5.31-18.64,6.79-26.71,7.21c-8.07,0.42-18.31-0.1-25.1-2.59l-0.11,0.24 c0,0,9.33,4.24,20.98,4.71c11.66,0.47,21.58-1,30.98-4.99c5.34-2.27,10.01-4.9,14.23-8.38c1-0.74,4.65-3.64,8.63-8.79 c0.58-0.74,1.16-1.53,1.74-2.37c2.41-3.46,4.81-7.72,6.71-12.8C129.28,58.42,127.25,59.46,124.34,59.75z"></path> </g> </svg> 